TITLE ""
FILE "1Q_t_0849-0858.mp3" MP3
  TRACK 01 AUDIO
    TITLE "1Q_t_0849-0858_01"
    INDEX 01 00:00:00
  TRACK 02 AUDIO
    TITLE "1Q_t_0849-0858_02"
    INDEX 01 00:01:06
  TRACK 03 AUDIO
    TITLE "1Q_t_0849-0858_03"
    INDEX 01 00:01:16
  TRACK 04 AUDIO
    TITLE "1Q_t_0849-0858_04"
    INDEX 01 00:03:63
  TRACK 05 AUDIO
    TITLE "1Q_t_0849-0858_05"
    INDEX 01 00:03:69
  TRACK 06 AUDIO
    TITLE "1Q_t_0849-0858_06"
    INDEX 01 00:09:35
  TRACK 07 AUDIO
    TITLE "1Q_t_0849-0858_07"
    INDEX 01 00:10:07
  TRACK 08 AUDIO
    TITLE "1Q_t_0849-0858_08"
    INDEX 01 00:11:39
  TRACK 09 AUDIO
    TITLE "1Q_t_0849-0858_09"
    INDEX 01 00:11:47
  TRACK 10 AUDIO
    TITLE "1Q_t_0849-0858_10"
    INDEX 01 00:13:48
  TRACK 11 AUDIO
    TITLE "1Q_t_0849-0858_11"
    INDEX 01 00:13:56
  TRACK 12 AUDIO
    TITLE "1Q_t_0849-0858_12"
    INDEX 01 00:20:46
  TRACK 13 AUDIO
    TITLE "1Q_t_0849-0858_13"
    INDEX 01 00:21:14
  TRACK 14 AUDIO
    TITLE "1Q_t_0849-0858_14"
    INDEX 01 00:22:28
  TRACK 15 AUDIO
    TITLE "1Q_t_0849-0858_15"
    INDEX 01 00:22:35
  TRACK 16 AUDIO
    TITLE "1Q_t_0849-0858_16"
    INDEX 01 00:24:52
  TRACK 17 AUDIO
    TITLE "1Q_t_0849-0858_17"
    INDEX 01 00:24:58
  TRACK 18 AUDIO
    TITLE "1Q_t_0849-0858_18"
    INDEX 01 00:30:37
  TRACK 19 AUDIO
    TITLE "1Q_t_0849-0858_19"
    INDEX 01 00:31:13
  TRACK 20 AUDIO
    TITLE "1Q_t_0849-0858_20"
    INDEX 01 00:32:26
  TRACK 21 AUDIO
    TITLE "1Q_t_0849-0858_21"
    INDEX 01 00:32:32
  TRACK 22 AUDIO
    TITLE "1Q_t_0849-0858_22"
    INDEX 01 00:34:43
  TRACK 23 AUDIO
    TITLE "1Q_t_0849-0858_23"
    INDEX 01 00:34:48
  TRACK 24 AUDIO
    TITLE "1Q_t_0849-0858_24"
    INDEX 01 00:40:25
  TRACK 25 AUDIO
    TITLE "1Q_t_0849-0858_25"
    INDEX 01 00:40:74
  TRACK 26 AUDIO
    TITLE "1Q_t_0849-0858_26"
    INDEX 01 00:42:05
  TRACK 27 AUDIO
    TITLE "1Q_t_0849-0858_27"
    INDEX 01 00:42:13
  TRACK 28 AUDIO
    TITLE "1Q_t_0849-0858_28"
    INDEX 01 00:44:23
  TRACK 29 AUDIO
    TITLE "1Q_t_0849-0858_29"
    INDEX 01 00:44:29
  TRACK 30 AUDIO
    TITLE "1Q_t_0849-0858_30"
    INDEX 01 00:49:70
  TRACK 31 AUDIO
    TITLE "1Q_t_0849-0858_31"
    INDEX 01 00:50:43
  TRACK 32 AUDIO
    TITLE "1Q_t_0849-0858_32"
    INDEX 01 00:51:43
  TRACK 33 AUDIO
    TITLE "1Q_t_0849-0858_33"
    INDEX 01 00:51:51
  TRACK 34 AUDIO
    TITLE "1Q_t_0849-0858_34"
    INDEX 01 00:52:64
  TRACK 35 AUDIO
    TITLE "1Q_t_0849-0858_35"
    INDEX 01 00:52:72
  TRACK 36 AUDIO
    TITLE "1Q_t_0849-0858_36"
    INDEX 01 00:57:53
  TRACK 37 AUDIO
    TITLE "1Q_t_0849-0858_37"
    INDEX 01 00:58:25
  TRACK 38 AUDIO
    TITLE "1Q_t_0849-0858_38"
    INDEX 01 00:59:27
  TRACK 39 AUDIO
    TITLE "1Q_t_0849-0858_39"
    INDEX 01 00:59:35
  TRACK 40 AUDIO
    TITLE "1Q_t_0849-0858_40"
    INDEX 01 01:03:52
  TRACK 41 AUDIO
    TITLE "1Q_t_0849-0858_41"
    INDEX 01 01:03:60
  TRACK 42 AUDIO
    TITLE "1Q_t_0849-0858_42"
    INDEX 01 01:09:31
  TRACK 43 AUDIO
    TITLE "1Q_t_0849-0858_43"
    INDEX 01 01:10:03
  TRACK 44 AUDIO
    TITLE "1Q_t_0849-0858_44"
    INDEX 01 01:11:18
  TRACK 45 AUDIO
    TITLE "1Q_t_0849-0858_45"
    INDEX 01 01:11:34
  TRACK 46 AUDIO
    TITLE "1Q_t_0849-0858_46"
    INDEX 01 01:14:17
  TRACK 47 AUDIO
    TITLE "1Q_t_0849-0858_47"
    INDEX 01 01:14:24
  TRACK 48 AUDIO
    TITLE "1Q_t_0849-0858_48"
    INDEX 01 01:20:21
  TRACK 49 AUDIO
    TITLE "1Q_t_0849-0858_49"
    INDEX 01 01:20:68
  TRACK 50 AUDIO
    TITLE "1Q_t_0849-0858_50"
    INDEX 01 01:22:04
  TRACK 51 AUDIO
    TITLE "1Q_t_0849-0858_51"
    INDEX 01 01:22:12
  TRACK 52 AUDIO
    TITLE "1Q_t_0849-0858_52"
    INDEX 01 01:23:16
  TRACK 53 AUDIO
    TITLE "1Q_t_0849-0858_53"
    INDEX 01 01:23:21
  TRACK 54 AUDIO
    TITLE "1Q_t_0849-0858_54"
    INDEX 01 01:28:52
  TRACK 55 AUDIO
    TITLE "1Q_t_0849-0858_55"
    INDEX 01 01:29:22
  TRACK 56 AUDIO
    TITLE "1Q_t_0849-0858_56"
    INDEX 01 01:30:29
  TRACK 57 AUDIO
    TITLE "1Q_t_0849-0858_57"
    INDEX 01 01:30:39
  TRACK 58 AUDIO
    TITLE "1Q_t_0849-0858_58"
    INDEX 01 01:32:58
  TRACK 59 AUDIO
    TITLE "1Q_t_0849-0858_59"
    INDEX 01 01:32:63
  TRACK 60 AUDIO
    TITLE "1Q_t_0849-0858_60"
    INDEX 01 01:37:57
